<svg width="171" height="55" viewBox="0 0 171 55" fill="none" xmlns="http://www.w3.org/2000/svg">
<path d="M0.134141 1.6H9.19414C11.3341 1.6 13.2341 2.08 14.8941 3.04C16.5541 3.98 17.8541 5.33 18.7941 7.09C19.7341 8.83 20.2041 10.9 20.2041 13.3C20.2041 15.72 19.7341 17.81 18.7941 19.57C17.8741 21.31 16.5941 22.65 14.9541 23.59C13.3141 24.53 11.4141 25 9.25414 25H0.134141V1.6ZM9.25414 23.56C11.1341 23.56 12.7841 23.15 14.2041 22.33C15.6441 21.49 16.7641 20.3 17.5641 18.76C18.3641 17.22 18.7641 15.4 18.7641 13.3C18.7641 11.2 18.3541 9.38 17.5341 7.84C16.7141 6.3 15.5841 5.12 14.1441 4.3C12.7241 3.46 11.0741 3.04 9.19414 3.04H1.57414V23.56H9.25414ZM4.21414 4.81H8.62414C10.0441 4.81 11.3141 5.12 12.4341 5.74C13.5541 6.36 14.4441 7.3 15.1041 8.56C15.7641 9.82 16.0941 11.4 16.0941 13.3C16.0941 15.14 15.7741 16.69 15.1341 17.95C14.4941 19.21 13.6141 20.17 12.4941 20.83C11.3941 21.47 10.1241 21.79 8.68414 21.79H4.21414V4.81ZM8.68414 20.35C10.4441 20.35 11.8741 19.74 12.9741 18.52C14.0941 17.3 14.6541 15.56 14.6541 13.3C14.6541 11.74 14.3941 10.44 13.8741 9.4C13.3541 8.34 12.6341 7.55 11.7141 7.03C10.8141 6.51 9.78414 6.25 8.62414 6.25H5.65414V20.35H8.68414ZM24.2748 1.6H40.4748V3.04H25.7148V23.56H41.0748V25H24.2748V1.6ZM28.2948 4.72H40.4748V6.16H29.7348V10.78H38.9448V12.22H28.2948V4.72ZM28.2948 13.81H38.9448V15.25H29.7348V20.44H41.0748V21.88H28.2948V13.81ZM66.7384 3.04H61.3984L57.2584 20.74H55.7884L51.4084 3.04H46.3984V25H44.9584V1.6H52.5484L55.9384 15.28C56.0584 15.72 56.1484 16.24 56.2084 16.84C56.2884 17.44 56.3484 17.97 56.3884 18.43C56.4284 18.89 56.4584 19.15 56.4784 19.21H56.5684C56.5884 19.15 56.6184 18.89 56.6584 18.43C56.6984 17.95 56.7484 17.42 56.8084 16.84C56.8684 16.24 56.9484 15.73 57.0484 15.31L60.2584 1.6H68.1784V25H66.7384V3.04ZM63.1684 15.7C63.1684 15.28 63.1784 14.73 63.1984 14.05C63.2184 13.35 63.2484 12.62 63.2884 11.86C63.3284 11.08 63.3584 10.33 63.3784 9.61C63.4184 8.87 63.4484 8.24 63.4684 7.72C63.5084 7.18 63.5284 6.83 63.5284 6.67H63.3484C63.3484 6.85 63.3084 7.18 63.2284 7.66C63.1684 8.12 63.0884 8.66 62.9884 9.28C62.9084 9.88 62.8084 10.48 62.6884 11.08C62.5884 11.66 62.4884 12.14 62.3884 12.52L59.2384 25H53.7184L50.3584 12.55C50.2784 12.27 50.1884 11.87 50.0884 11.35C49.9884 10.81 49.8884 10.24 49.7884 9.64C49.6884 9.02 49.5984 8.45 49.5184 7.93C49.4384 7.39 49.3784 6.97 49.3384 6.67H49.1584C49.1784 6.85 49.1984 7.2 49.2184 7.72C49.2584 8.24 49.2884 8.86 49.3084 9.58C49.3484 10.28 49.3884 11.02 49.4284 11.8C49.4684 12.58 49.4984 13.32 49.5184 14.02C49.5384 14.72 49.5484 15.31 49.5484 15.79V25H48.1084V5.11H49.8484L54.8284 23.56H58.0984L62.7484 5.11H64.6084V25H63.1684V15.7ZM83.0642 25.6C80.9042 25.6 79.0142 25.1 77.3942 24.1C75.7742 23.1 74.5142 21.68 73.6142 19.84C72.7142 17.98 72.2642 15.78 72.2642 13.24C72.2642 10.76 72.7142 8.6 73.6142 6.76C74.5142 4.92 75.7742 3.5 77.3942 2.5C79.0142 1.48 80.9042 0.969998 83.0642 0.969998C85.2242 0.969998 87.1042 1.48 88.7042 2.5C90.3242 3.52 91.5742 4.95 92.4542 6.79C93.3342 8.63 93.7742 10.78 93.7742 13.24C93.7742 15.78 93.3342 17.98 92.4542 19.84C91.5742 21.68 90.3242 23.1 88.7042 24.1C87.1042 25.1 85.2242 25.6 83.0642 25.6ZM83.0642 24.19C84.9642 24.19 86.6042 23.74 87.9842 22.84C89.3642 21.94 90.4342 20.67 91.1942 19.03C91.9542 17.39 92.3342 15.46 92.3342 13.24C92.3342 11.08 91.9542 9.19 91.1942 7.57C90.4342 5.95 89.3642 4.69 87.9842 3.79C86.6042 2.87 84.9642 2.41 83.0642 2.41C81.1642 2.41 79.5142 2.86 78.1142 3.76C76.7142 4.66 75.6242 5.92 74.8442 7.54C74.0842 9.16 73.7042 11.06 73.7042 13.24C73.7042 15.46 74.0842 17.39 74.8442 19.03C75.6242 20.67 76.7142 21.94 78.1142 22.84C79.5142 23.74 81.1642 24.19 83.0642 24.19ZM83.0642 22.36C81.8642 22.36 80.7542 22.01 79.7342 21.31C78.7342 20.61 77.9342 19.59 77.3342 18.25C76.7342 16.89 76.4342 15.22 76.4342 13.24C76.4342 11.24 76.7542 9.58 77.3942 8.26C78.0342 6.92 78.8542 5.92 79.8542 5.26C80.8742 4.58 81.9442 4.24 83.0642 4.24C84.2642 4.24 85.3542 4.58 86.3342 5.26C87.3342 5.92 88.1242 6.92 88.7042 8.26C89.3042 9.58 89.6042 11.24 89.6042 13.24C89.6042 15.22 89.2942 16.89 88.6742 18.25C88.0542 19.59 87.2442 20.61 86.2442 21.31C85.2642 22.01 84.2042 22.36 83.0642 22.36ZM83.0642 20.92C84.0042 20.92 84.8542 20.62 85.6142 20.02C86.3942 19.42 87.0142 18.55 87.4742 17.41C87.9342 16.25 88.1642 14.86 88.1642 13.24C88.1642 10.8 87.6842 8.93 86.7242 7.63C85.7642 6.33 84.5442 5.68 83.0642 5.68C82.1442 5.68 81.2842 5.97 80.4842 6.55C79.7042 7.13 79.0742 7.98 78.5942 9.1C78.1142 10.22 77.8742 11.6 77.8742 13.24C77.8742 14.86 78.0942 16.25 78.5342 17.41C78.9942 18.55 79.6142 19.42 80.3942 20.02C81.1942 20.62 82.0842 20.92 83.0642 20.92ZM105.885 25V24.68L106.685 24.392C107.112 24.2213 107.442 24.0187 107.677 23.784C107.912 23.528 108.104 23.176 108.253 22.728L114.845 3.816H117.565L124.061 22.856C124.232 23.3253 124.424 23.688 124.637 23.944C124.85 24.1787 125.181 24.3813 125.629 24.552L126.013 24.68V25H117.885V24.68L118.365 24.52C118.813 24.3493 119.08 24.1147 119.165 23.816C119.272 23.496 119.261 23.1227 119.133 22.696L117.629 18.088H110.525L108.989 22.6C108.84 23.0693 108.786 23.4427 108.829 23.72C108.893 23.9973 109.149 24.2213 109.597 24.392L110.301 24.68V25H105.885ZM110.749 17.448H117.437L114.205 7.496L110.749 17.448ZM127.02 25V24.68L127.66 24.456C128.087 24.328 128.364 24.136 128.492 23.88C128.642 23.624 128.716 23.2827 128.716 22.856V6.088C128.716 5.66133 128.642 5.32 128.492 5.064C128.343 4.808 128.055 4.60533 127.628 4.456L127.02 4.2V3.88H134.796C137.975 3.88 140.268 4.46667 141.676 5.64C143.106 6.792 143.82 8.31733 143.82 10.216C143.82 11.432 143.522 12.552 142.924 13.576C142.348 14.5787 141.388 15.3787 140.044 15.976C138.7 16.5733 136.887 16.872 134.604 16.872H133.516V22.76C133.516 23.592 133.932 24.136 134.764 24.392L135.724 24.68V25H127.02ZM133.516 16.232H134.732C135.778 16.232 136.631 16.0613 137.292 15.72C137.954 15.3787 138.444 14.7813 138.764 13.928C139.084 13.0747 139.244 11.8907 139.244 10.376C139.244 8.84 139.063 7.64533 138.7 6.792C138.359 5.93867 137.847 5.352 137.164 5.032C136.482 4.69067 135.628 4.52 134.604 4.52H133.516V16.232ZM144.802 25V24.68L145.442 24.456C145.868 24.328 146.146 24.136 146.274 23.88C146.423 23.624 146.498 23.2827 146.498 22.856V6.088C146.498 5.66133 146.423 5.32 146.274 5.064C146.124 4.808 145.836 4.60533 145.41 4.456L144.802 4.2V3.88H152.578C155.756 3.88 158.05 4.46667 159.458 5.64C160.887 6.792 161.602 8.31733 161.602 10.216C161.602 11.432 161.303 12.552 160.706 13.576C160.13 14.5787 159.17 15.3787 157.826 15.976C156.482 16.5733 154.668 16.872 152.386 16.872H151.298V22.76C151.298 23.592 151.714 24.136 152.546 24.392L153.506 24.68V25H144.802ZM151.298 16.232H152.514C153.559 16.232 154.412 16.0613 155.074 15.72C155.735 15.3787 156.226 14.7813 156.546 13.928C156.866 13.0747 157.026 11.8907 157.026 10.376C157.026 8.84 156.844 7.64533 156.482 6.792C156.14 5.93867 155.628 5.352 154.946 5.032C154.263 4.69067 153.41 4.52 152.386 4.52H151.298V16.232ZM143.083 53.988H145.668V55H141.829V47.355H143.083V53.988ZM151.381 47.355V55H150.127V47.355H151.381ZM161.376 47.355V48.378H159.341V55H158.087V48.378H156.041V47.355H161.376ZM167.31 48.367V50.611H169.95V51.634H167.31V53.977H170.28V55H166.056V47.344H170.28V48.367H167.31Z" fill="#FFFCEA"/>
</svg>
