<svg width="23" height="23" viewBox="0 0 23 23" fill="none" xmlns="http://www.w3.org/2000/svg">
<rect width="23" height="23" fill="white"/>
<path fill-rule="evenodd" clip-rule="evenodd" d="M22.5408 11.736C22.5408 10.9224 22.4678 10.14 22.3322 9.38892H11.5251V13.8275H17.7006C17.4346 15.2619 16.6262 16.4771 15.4109 17.2908V20.1699H19.1193C21.2891 18.1723 22.5408 15.2306 22.5408 11.736Z" fill="#4285F4"/>
<path fill-rule="evenodd" clip-rule="evenodd" d="M11.5245 22.9499C14.6226 22.9499 17.2201 21.9224 19.1186 20.1699L15.4102 17.2908C14.3827 17.9793 13.0683 18.3861 11.5245 18.3861C8.53583 18.3861 6.00618 16.3676 5.10385 13.6554H1.27026V16.6284C3.15837 20.3785 7.0389 22.9499 11.5245 22.9499Z" fill="#34A853"/>
<path fill-rule="evenodd" clip-rule="evenodd" d="M5.10413 13.6551C4.87463 12.9667 4.74424 12.2312 4.74424 11.475C4.74424 10.7187 4.87463 9.98324 5.10413 9.29476V6.32178H1.27054C0.493389 7.87086 0.0500488 9.62335 0.0500488 11.475C0.0500488 13.3265 0.493389 15.079 1.27054 16.6281L5.10413 13.6551Z" fill="#FBBC05"/>
<path fill-rule="evenodd" clip-rule="evenodd" d="M11.5245 4.56379C13.2092 4.56379 14.7217 5.14274 15.9109 6.27978L19.2021 2.98863C17.2149 1.13704 14.6174 0 11.5245 0C7.0389 0 3.15837 2.57137 1.27026 6.32151L5.10385 9.29449C6.00618 6.58229 8.53583 4.56379 11.5245 4.56379Z" fill="#EA4335"/>
</svg>
