<svg width="233" height="32" viewBox="0 0 233 32" fill="none" xmlns="http://www.w3.org/2000/svg">
<path d="M13.8323 2.00997H8.97231L1.62231 23.97H0.122307L7.92231 0.56997H14.8823L22.6823 23.97H21.1223L13.8323 2.00997ZM10.4723 4.37997H12.2123L15.8123 15.33H6.87231L10.4723 4.37997ZM13.8323 13.89C13.7323 13.57 13.5723 13.09 13.3523 12.45C13.1323 11.81 12.8923 11.1 12.6323 10.32C12.3723 9.51997 12.1323 8.72997 11.9123 7.94997C11.6923 7.14997 11.5323 6.43997 11.4323 5.81997H11.2523C11.1523 6.41997 10.9923 7.11997 10.7723 7.91997C10.5723 8.69997 10.3423 9.48997 10.0823 10.29C9.82231 11.07 9.58231 11.79 9.36231 12.45C9.14231 13.09 8.98231 13.57 8.88231 13.89H13.8323ZM15.3323 18.48H7.41231L5.55231 23.97H4.05231L6.39231 17.04H16.3823L18.6323 23.97H17.1323L15.3323 18.48ZM29.3409 15.03H34.9209C36.9209 15.03 38.4909 14.44 39.6309 13.26C40.7709 12.08 41.3409 10.49 41.3409 8.48997C41.3409 7.22997 41.0809 6.11997 40.5609 5.15997C40.0409 4.17997 39.3109 3.40997 38.3709 2.84997C37.4309 2.28997 36.3109 2.00997 35.0109 2.00997H26.7609V23.97H25.3209V0.56997H35.0109C36.5909 0.56997 37.9609 0.90997 39.1209 1.58997C40.2809 2.26997 41.1809 3.20997 41.8209 4.40997C42.4609 5.58997 42.7809 6.94997 42.7809 8.48997C42.7809 10.95 42.0809 12.9 40.6809 14.34C39.2809 15.76 37.3609 16.47 34.9209 16.47H30.7809V23.97H29.3409V15.03ZM29.2509 3.71997H33.7809C35.2009 3.71997 36.3809 4.10997 37.3209 4.88997C38.2809 5.66997 38.7609 6.87997 38.7609 8.51997C38.7609 9.59997 38.5409 10.5 38.1009 11.22C37.6609 11.92 37.0609 12.45 36.3009 12.81C35.5609 13.15 34.7309 13.32 33.8109 13.32H29.2509V3.71997ZM33.8109 11.88C34.7909 11.88 35.6209 11.61 36.3009 11.07C36.9809 10.51 37.3209 9.65997 37.3209 8.51997C37.3209 7.35997 36.9809 6.50997 36.3009 5.96997C35.6209 5.42997 34.7809 5.15997 33.7809 5.15997H30.6909V11.88H33.8109ZM46.6783 0.56997H62.8783V2.00997H48.1183V22.53H63.4783V23.97H46.6783V0.56997ZM50.6983 3.68997H62.8783V5.12997H52.1383V9.74997H61.3483V11.19H50.6983V3.68997ZM50.6983 12.78H61.3483V14.22H52.1383V19.41H63.4783V20.85H50.6983V12.78ZM71.2319 0.56997L74.9519 7.58997L78.6719 0.56997H80.2619L74.9519 10.62L69.6419 0.56997H71.2319ZM76.4219 11.85L82.9619 0.56997H84.6419L78.0719 11.88L85.0019 23.97H83.3519L76.4219 11.85ZM71.7719 12.09L65.1419 0.56997H66.8219L73.4519 12.09L66.6119 23.97H64.9319L71.7719 12.09ZM74.8619 16.56L70.8719 23.97H69.2219L74.8919 13.5L80.3519 23.97H78.7619L74.8619 16.56ZM103.126 24.546C101.953 24.546 100.758 24.3966 99.5422 24.098C98.3262 23.8206 97.3129 23.4473 96.5022 22.978L96.6622 18.626H96.9822L97.9742 20.706C98.2729 21.3033 98.5929 21.8366 98.9342 22.306C99.2756 22.754 99.7449 23.106 100.342 23.362C100.769 23.5753 101.174 23.7246 101.558 23.81C101.964 23.874 102.412 23.906 102.902 23.906C104.204 23.906 105.228 23.554 105.974 22.85C106.742 22.146 107.126 21.2393 107.126 20.13C107.126 19.0846 106.87 18.274 106.358 17.698C105.846 17.1006 105.025 16.5246 103.894 15.97L102.582 15.394C100.748 14.5833 99.3076 13.6553 98.2622 12.61C97.2382 11.5433 96.7262 10.1353 96.7262 8.38597C96.7262 7.1273 97.0462 6.0393 97.6862 5.12197C98.3476 4.20464 99.2542 3.50064 100.406 3.00997C101.58 2.5193 102.945 2.27397 104.502 2.27397C105.633 2.27397 106.7 2.4233 107.702 2.72197C108.726 3.02064 109.612 3.42597 110.358 3.93797L110.166 7.77797H109.846L108.534 5.37797C108.172 4.6313 107.809 4.10864 107.446 3.80997C107.084 3.48997 106.668 3.26597 106.198 3.13797C105.921 3.05264 105.665 2.9993 105.43 2.97797C105.196 2.9353 104.897 2.91397 104.534 2.91397C103.446 2.91397 102.529 3.23397 101.782 3.87397C101.036 4.49264 100.662 5.3353 100.662 6.40197C100.662 7.48997 100.95 8.36464 101.526 9.02597C102.102 9.66597 102.945 10.242 104.054 10.754L105.526 11.394C107.574 12.29 109.046 13.25 109.942 14.274C110.838 15.2766 111.286 16.578 111.286 18.178C111.286 20.0553 110.572 21.5913 109.142 22.786C107.734 23.9593 105.729 24.546 103.126 24.546ZM118.349 24.45C117.517 24.45 116.749 24.29 116.045 23.97C115.363 23.65 114.819 23.138 114.413 22.434C114.029 21.7086 113.848 20.7593 113.869 19.586L113.965 11.362C113.965 10.8713 113.88 10.5193 113.709 10.306C113.539 10.0926 113.272 9.9433 112.909 9.85797L112.525 9.72997V9.40997L118.253 8.28997L118.573 8.60997L118.413 13.154V20.866C118.413 21.5486 118.605 22.05 118.989 22.37C119.395 22.69 119.896 22.85 120.493 22.85C121.091 22.85 121.624 22.7646 122.093 22.594C122.563 22.4233 123.032 22.1673 123.501 21.826L123.629 11.394C123.629 10.9033 123.555 10.562 123.405 10.37C123.256 10.1566 122.979 10.0073 122.573 9.92197L122.253 9.82597V9.50597L127.853 8.28997L128.173 8.60997L128.077 13.154V21.826C128.077 22.2953 128.141 22.658 128.269 22.914C128.397 23.17 128.675 23.3833 129.101 23.554L129.421 23.65V23.97L123.821 24.29L123.533 22.402C122.829 22.978 122.061 23.4686 121.229 23.874C120.419 24.258 119.459 24.45 118.349 24.45ZM130.713 23.97V23.65L131.193 23.522C131.62 23.394 131.908 23.202 132.057 22.946C132.228 22.69 132.313 22.3593 132.313 21.954V11.938C132.313 11.4686 132.228 11.1273 132.057 10.914C131.908 10.6793 131.62 10.5193 131.193 10.434L130.713 10.306V9.98597L136.217 8.12997L136.537 8.44997L136.825 11.202V11.458C137.124 10.8606 137.508 10.3166 137.977 9.82597C138.468 9.31397 139.001 8.89797 139.577 8.57797C140.175 8.25797 140.761 8.09797 141.337 8.09797C142.148 8.09797 142.767 8.32197 143.193 8.76997C143.62 9.21797 143.833 9.7833 143.833 10.466C143.833 11.1913 143.62 11.7566 143.193 12.162C142.788 12.546 142.297 12.738 141.721 12.738C140.825 12.738 140.036 12.29 139.353 11.394L139.289 11.33C139.076 11.0313 138.831 10.8713 138.553 10.85C138.276 10.8073 138.02 10.9353 137.785 11.234C137.572 11.426 137.391 11.6606 137.241 11.938C137.113 12.194 136.985 12.4926 136.857 12.834V21.762C136.857 22.6153 137.231 23.1486 137.977 23.362L139.001 23.65V23.97H130.713ZM152.506 24.066L146.842 10.466C146.544 9.74064 146.032 9.26064 145.306 9.02597L144.858 8.89797V8.57797H153.146V8.89797L152.57 9.02597C151.738 9.2393 151.482 9.79397 151.802 10.69L155.162 19.618L158.298 10.754C158.469 10.3273 158.512 9.9753 158.426 9.69797C158.341 9.42064 158.085 9.21797 157.658 9.08997L156.858 8.89797V8.57797H161.498V8.89797L160.57 9.12197C160.165 9.22864 159.845 9.38864 159.61 9.60197C159.397 9.8153 159.216 10.1353 159.066 10.562L154.362 24.066H152.506ZM169.495 8.09797C170.882 8.09797 172.066 8.38597 173.047 8.96197C174.029 9.51664 174.775 10.2846 175.287 11.266C175.821 12.226 176.087 13.3246 176.087 14.562C176.087 14.7966 176.077 15.042 176.055 15.298C176.034 15.5326 175.991 15.746 175.927 15.938H166.391C166.413 18.242 166.818 19.906 167.607 20.93C168.418 21.9326 169.613 22.434 171.191 22.434C172.258 22.434 173.122 22.2633 173.783 21.922C174.445 21.5806 175.063 21.0793 175.639 20.418L175.959 20.706C175.298 21.8793 174.413 22.7966 173.303 23.458C172.215 24.1193 170.903 24.45 169.367 24.45C167.853 24.45 166.509 24.13 165.335 23.49C164.162 22.8286 163.245 21.89 162.583 20.674C161.922 19.458 161.591 18.0073 161.591 16.322C161.591 14.5726 161.975 13.09 162.743 11.874C163.511 10.6366 164.493 9.69797 165.687 9.05797C166.903 8.41797 168.173 8.09797 169.495 8.09797ZM169.399 8.73797C168.781 8.73797 168.247 8.92997 167.799 9.31397C167.373 9.67664 167.031 10.338 166.775 11.298C166.541 12.2366 166.413 13.57 166.391 15.298H171.863C172.077 12.9726 171.991 11.298 171.607 10.274C171.223 9.24997 170.487 8.73797 169.399 8.73797ZM180.501 31.65C179.648 31.65 178.965 31.4366 178.453 31.01C177.963 30.5833 177.717 30.0393 177.717 29.378C177.717 28.7806 177.931 28.3006 178.357 27.938C178.784 27.5753 179.264 27.394 179.797 27.394C180.331 27.394 180.779 27.5006 181.141 27.714C181.504 27.9486 181.824 28.2793 182.101 28.706L182.325 28.962C182.795 29.602 183.264 29.5913 183.733 28.93C183.925 28.61 184.139 28.1833 184.373 27.65C184.629 27.138 184.917 26.4446 185.237 25.57L179.029 10.722C178.88 10.3166 178.72 9.99664 178.549 9.76197C178.379 9.50597 178.101 9.29264 177.717 9.12197L177.141 8.89797V8.57797H185.109V8.86597L184.469 9.12197C184 9.2713 183.755 9.51664 183.733 9.85797C183.733 10.178 183.819 10.5833 183.989 11.074L187.317 19.714L190.485 10.978C190.656 10.4873 190.72 10.082 190.677 9.76197C190.635 9.42064 190.368 9.18597 189.877 9.05797L189.205 8.89797V8.57797H193.653V8.89797L192.949 9.12197C192.459 9.2713 192.117 9.48464 191.925 9.76197C191.733 10.0393 191.552 10.4233 191.381 10.914L186.229 24.962C185.397 27.202 184.565 28.8766 183.733 29.986C182.901 31.0953 181.824 31.65 180.501 31.65ZM204.961 22.958H207.546V23.97H203.707V16.325H204.961V22.958ZM213.259 16.325V23.97H212.005V16.325H213.259ZM223.254 16.325V17.348H221.219V23.97H219.965V17.348H217.919V16.325H223.254ZM229.188 17.337V19.581H231.828V20.604H229.188V22.947H232.158V23.97H227.934V16.314H232.158V17.337H229.188Z" fill="#7633FF"/>
</svg>
